<?xml version="1.0" encoding="UTF-8" standalone="no"?>
<!DOCTYPE svg PUBLIC "-//W3C//DTD SVG 1.1//EN" "http://www.w3.org/Graphics/SVG/1.1/DTD/svg11.dtd">
<svg xmlns="http://www.w3.org/2000/svg" version="1.1" viewBox="0.00 0.00 1048.00 1104.00">
<g stroke-width="2.00" fill="none" stroke-linecap="butt">
<path stroke="#9389ad" vector-effect="non-scaling-stroke" d="
  M 427.72 357.24
  C 425.43 311.04 445.40 268.63 480.23 238.72
  C 518.28 206.03 564.44 205.70 611.06 205.39
  Q 666.51 205.02 722.02 204.96
  A 0.45 0.45 0.0 0 0 722.32 204.17
  Q 721.91 203.81 721.15 203.37
  Q 622.47 145.81 523.06 89.54
  C 516.14 85.63 509.76 88.35 503.06 92.22
  Q 406.40 148.06 309.69 203.82
  C 307.81 204.90 307.00 206.17 307.00 208.25
  Q 307.00 327.81 307.00 447.37
  C 307.00 449.88 308.04 450.21 309.94 451.31
  Q 410.11 509.03 510.34 566.65
  C 514.19 568.87 517.34 569.21 521.06 567.07
  Q 578.71 533.78 636.54 500.29
  A 0.53 0.53 0.0 0 0 636.28 499.30
  Q 636.01 499.29 635.68 499.13
  Q 635.24 498.89 634.74 498.90
  Q 597.48 499.52 581.56 499.19
  Q 564.62 498.83 553.00 497.24
  C 481.64 487.48 431.22 428.19 427.72 357.24"
/>
<path stroke="#dd9797" vector-effect="non-scaling-stroke" d="
  M 725.01 440.35
  L 725.01 263.53
  A 1.95 1.95 0.0 0 0 723.06 261.58
  L 575.41 261.58
  A 94.40 90.33 0.0 0 0 481.01 351.91
  L 481.01 351.97
  A 94.40 90.33 0.0 0 0 575.41 442.30
  L 723.06 442.30
  A 1.95 1.95 0.0 0 0 725.01 440.35"
/>
<path stroke="#9389ad" vector-effect="non-scaling-stroke" d="
  M 180.36 891.52
  C 83.59 881.54 51.95 730.85 138.88 685.16
  C 195.54 655.38 260.42 675.30 280.94 738.51
  C 281.28 739.56 282.47 741.00 283.50 741.00
  Q 311.99 741.00 340.54 741.00
  A 1.61 1.61 0.0 0 0 342.13 739.16
  C 328.26 644.85 240.65 606.78 154.45 620.96
  Q 102.24 629.54 68.18 668.10
  C 16.92 726.14 15.90 824.69 61.56 886.19
  C 96.79 933.63 149.28 950.66 207.25 945.48
  C 278.27 939.14 328.61 900.66 341.98 828.85
  A 1.55 1.55 0.0 0 0 340.46 827.02
  L 281.07 826.99
  A 1.43 1.42 -81.0 0 0 279.72 827.98
  C 270.57 856.67 253.61 877.25 224.59 886.87
  Q 203.38 893.89 180.36 891.52"
/>
<path stroke="#9389ad" vector-effect="non-scaling-stroke" d="
  M 449.64 835.21
  A 0.88 0.87 12.0 0 1 450.39 834.73
  C 482.45 833.41 516.05 836.25 547.55 829.45
  C 614.95 814.90 643.52 747.61 622.13 685.42
  C 604.39 633.82 554.65 623.05 506.50 622.74
  Q 482.86 622.59 391.84 623.10
  C 389.91 623.11 388.14 622.72 388.13 625.25
  Q 387.74 782.72 387.72 939.79
  A 2.21 2.21 0.0 0 0 389.93 942.00
  L 447.44 942.00
  A 1.56 1.56 0.0 0 0 449.00 940.44
  Q 449.00 889.02 449.00 837.33
  C 449.00 836.54 449.31 835.89 449.64 835.21"
/>
<path stroke="#9389ad" vector-effect="non-scaling-stroke" d="
  M 719.84 738.21
  C 720.28 738.46 721.03 739.85 721.30 740.36
  Q 763.52 819.94 805.78 899.57
  A 0.82 0.81 -14.0 0 0 806.50 900.00
  L 847.52 900.00
  Q 848.16 900.00 848.48 899.44
  L 939.63 738.42
  A 0.81 0.75 -85.9 0 1 939.95 738.12
  C 941.24 737.46 942.00 738.55 942.00 739.72
  Q 942.00 840.59 942.00 940.92
  A 1.08 1.08 0.0 0 0 943.08 942.00
  L 1002.09 942.00
  A 1.66 1.66 0.0 0 0 1003.75 940.34
  L 1003.42 623.99
  A 0.99 0.99 0.0 0 0 1002.43 623.00
  L 942.03 623.00
  A 1.27 1.27 0.0 0 0 940.91 623.67
  C 931.47 641.02 831.29 826.02 830.48 826.01
  A 1.83 0.83 -4.2 0 1 829.00 825.47
  L 719.94 623.56
  A 1.07 1.06 -14.0 0 0 719.00 623.00
  L 659.00 623.00
  A 1.00 1.00 0.0 0 0 658.00 624.00
  L 658.00 940.97
  A 1.03 1.03 0.0 0 0 659.03 942.00
  L 717.22 942.00
  A 0.78 0.78 0.0 0 0 718.00 941.22
  L 718.00 739.27
  A 1.23 1.22 -74.9 0 1 719.84 738.21"
/>
<path stroke="#9389ad" vector-effect="non-scaling-stroke" d="
  M 448.94 678.37
  L 448.94 778.03
  A 1.54 1.54 0.0 0 0 450.48 779.57
  L 511.82 779.57
  A 52.26 48.81 0.0 0 0 564.08 730.76
  L 564.08 725.64
  A 52.26 48.81 -0.0 0 0 511.82 676.83
  L 450.48 676.83
  A 1.54 1.54 0.0 0 0 448.94 678.37"
/>
</g>
<path fill="#ffffff" d="
  M 0.00 0.00
  L 1048.00 0.00
  L 1048.00 1104.00
  L 0.00 1104.00
  L 0.00 0.00
  Z
  M 427.72 357.24
  C 425.43 311.04 445.40 268.63 480.23 238.72
  C 518.28 206.03 564.44 205.70 611.06 205.39
  Q 666.51 205.02 722.02 204.96
  A 0.45 0.45 0.0 0 0 722.32 204.17
  Q 721.91 203.81 721.15 203.37
  Q 622.47 145.81 523.06 89.54
  C 516.14 85.63 509.76 88.35 503.06 92.22
  Q 406.40 148.06 309.69 203.82
  C 307.81 204.90 307.00 206.17 307.00 208.25
  Q 307.00 327.81 307.00 447.37
  C 307.00 449.88 308.04 450.21 309.94 451.31
  Q 410.11 509.03 510.34 566.65
  C 514.19 568.87 517.34 569.21 521.06 567.07
  Q 578.71 533.78 636.54 500.29
  A 0.53 0.53 0.0 0 0 636.28 499.30
  Q 636.01 499.29 635.68 499.13
  Q 635.24 498.89 634.74 498.90
  Q 597.48 499.52 581.56 499.19
  Q 564.62 498.83 553.00 497.24
  C 481.64 487.48 431.22 428.19 427.72 357.24
  Z
  M 725.01 440.35
  L 725.01 263.53
  A 1.95 1.95 0.0 0 0 723.06 261.58
  L 575.41 261.58
  A 94.40 90.33 0.0 0 0 481.01 351.91
  L 481.01 351.97
  A 94.40 90.33 0.0 0 0 575.41 442.30
  L 723.06 442.30
  A 1.95 1.95 0.0 0 0 725.01 440.35
  Z
  M 180.36 891.52
  C 83.59 881.54 51.95 730.85 138.88 685.16
  C 195.54 655.38 260.42 675.30 280.94 738.51
  C 281.28 739.56 282.47 741.00 283.50 741.00
  Q 311.99 741.00 340.54 741.00
  A 1.61 1.61 0.0 0 0 342.13 739.16
  C 328.26 644.85 240.65 606.78 154.45 620.96
  Q 102.24 629.54 68.18 668.10
  C 16.92 726.14 15.90 824.69 61.56 886.19
  C 96.79 933.63 149.28 950.66 207.25 945.48
  C 278.27 939.14 328.61 900.66 341.98 828.85
  A 1.55 1.55 0.0 0 0 340.46 827.02
  L 281.07 826.99
  A 1.43 1.42 -81.0 0 0 279.72 827.98
  C 270.57 856.67 253.61 877.25 224.59 886.87
  Q 203.38 893.89 180.36 891.52
  Z
  M 449.64 835.21
  A 0.88 0.87 12.0 0 1 450.39 834.73
  C 482.45 833.41 516.05 836.25 547.55 829.45
  C 614.95 814.90 643.52 747.61 622.13 685.42
  C 604.39 633.82 554.65 623.05 506.50 622.74
  Q 482.86 622.59 391.84 623.10
  C 389.91 623.11 388.14 622.72 388.13 625.25
  Q 387.74 782.72 387.72 939.79
  A 2.21 2.21 0.0 0 0 389.93 942.00
  L 447.44 942.00
  A 1.56 1.56 0.0 0 0 449.00 940.44
  Q 449.00 889.02 449.00 837.33
  C 449.00 836.54 449.31 835.89 449.64 835.21
  Z
  M 719.84 738.21
  C 720.28 738.46 721.03 739.85 721.30 740.36
  Q 763.52 819.94 805.78 899.57
  A 0.82 0.81 -14.0 0 0 806.50 900.00
  L 847.52 900.00
  Q 848.16 900.00 848.48 899.44
  L 939.63 738.42
  A 0.81 0.75 -85.9 0 1 939.95 738.12
  C 941.24 737.46 942.00 738.55 942.00 739.72
  Q 942.00 840.59 942.00 940.92
  A 1.08 1.08 0.0 0 0 943.08 942.00
  L 1002.09 942.00
  A 1.66 1.66 0.0 0 0 1003.75 940.34
  L 1003.42 623.99
  A 0.99 0.99 0.0 0 0 1002.43 623.00
  L 942.03 623.00
  A 1.27 1.27 0.0 0 0 940.91 623.67
  C 931.47 641.02 831.29 826.02 830.48 826.01
  A 1.83 0.83 -4.2 0 1 829.00 825.47
  L 719.94 623.56
  A 1.07 1.06 -14.0 0 0 719.00 623.00
  L 659.00 623.00
  A 1.00 1.00 0.0 0 0 658.00 624.00
  L 658.00 940.97
  A 1.03 1.03 0.0 0 0 659.03 942.00
  L 717.22 942.00
  A 0.78 0.78 0.0 0 0 718.00 941.22
  L 718.00 739.27
  A 1.23 1.22 -74.9 0 1 719.84 738.21
  Z"
/>
<path fill="#26125b" d="
  M 427.72 357.24
  C 431.22 428.19 481.64 487.48 553.00 497.24
  Q 564.62 498.83 581.56 499.19
  Q 597.48 499.52 634.74 498.90
  Q 635.24 498.89 635.68 499.13
  Q 636.01 499.29 636.28 499.30
  A 0.53 0.53 0.0 0 1 636.54 500.29
  Q 578.71 533.78 521.06 567.07
  C 517.34 569.21 514.19 568.87 510.34 566.65
  Q 410.11 509.03 309.94 451.31
  C 308.04 450.21 307.00 449.88 307.00 447.37
  Q 307.00 327.81 307.00 208.25
  C 307.00 206.17 307.81 204.90 309.69 203.82
  Q 406.40 148.06 503.06 92.22
  C 509.76 88.35 516.14 85.63 523.06 89.54
  Q 622.47 145.81 721.15 203.37
  Q 721.91 203.81 722.32 204.17
  A 0.45 0.45 0.0 0 1 722.02 204.96
  Q 666.51 205.02 611.06 205.39
  C 564.44 205.70 518.28 206.03 480.23 238.72
  C 445.40 268.63 425.43 311.04 427.72 357.24
  Z"
/>
<path fill="#bb2e2e" d="
  M 725.01 440.35
  A 1.95 1.95 0.0 0 1 723.06 442.30
  L 575.41 442.30
  A 94.40 90.33 0.0 0 1 481.01 351.97
  L 481.01 351.91
  A 94.40 90.33 0.0 0 1 575.41 261.58
  L 723.06 261.58
  A 1.95 1.95 0.0 0 1 725.01 263.53
  L 725.01 440.35
  Z"
/>
<path fill="#26125b" d="
  M 138.88 685.16
  C 51.95 730.85 83.59 881.54 180.36 891.52
  Q 203.38 893.89 224.59 886.87
  C 253.61 877.25 270.57 856.67 279.72 827.98
  A 1.43 1.42 -81.0 0 1 281.07 826.99
  L 340.46 827.02
  A 1.55 1.55 0.0 0 1 341.98 828.85
  C 328.61 900.66 278.27 939.14 207.25 945.48
  C 149.28 950.66 96.79 933.63 61.56 886.19
  C 15.90 824.69 16.92 726.14 68.18 668.10
  Q 102.24 629.54 154.45 620.96
  C 240.65 606.78 328.26 644.85 342.13 739.16
  A 1.61 1.61 0.0 0 1 340.54 741.00
  Q 311.99 741.00 283.50 741.00
  C 282.47 741.00 281.28 739.56 280.94 738.51
  C 260.42 675.30 195.54 655.38 138.88 685.16
  Z"
/>
<path fill="#26125b" d="
  M 449.64 835.21
  C 449.31 835.89 449.00 836.54 449.00 837.33
  Q 449.00 889.02 449.00 940.44
  A 1.56 1.56 0.0 0 1 447.44 942.00
  L 389.93 942.00
  A 2.21 2.21 0.0 0 1 387.72 939.79
  Q 387.74 782.72 388.13 625.25
  C 388.14 622.72 389.91 623.11 391.84 623.10
  Q 482.86 622.59 506.50 622.74
  C 554.65 623.05 604.39 633.82 622.13 685.42
  C 643.52 747.61 614.95 814.90 547.55 829.45
  C 516.05 836.25 482.45 833.41 450.39 834.73
  A 0.88 0.87 12.0 0 0 449.64 835.21
  Z
  M 448.94 678.37
  L 448.94 778.03
  A 1.54 1.54 0.0 0 0 450.48 779.57
  L 511.82 779.57
  A 52.26 48.81 0.0 0 0 564.08 730.76
  L 564.08 725.64
  A 52.26 48.81 -0.0 0 0 511.82 676.83
  L 450.48 676.83
  A 1.54 1.54 0.0 0 0 448.94 678.37
  Z"
/>
<path fill="#26125b" d="
  M 719.84 738.21
  A 1.23 1.22 -74.9 0 0 718.00 739.27
  L 718.00 941.22
  A 0.78 0.78 0.0 0 1 717.22 942.00
  L 659.03 942.00
  A 1.03 1.03 0.0 0 1 658.00 940.97
  L 658.00 624.00
  A 1.00 1.00 0.0 0 1 659.00 623.00
  L 719.00 623.00
  A 1.07 1.06 -14.0 0 1 719.94 623.56
  L 829.00 825.47
  A 1.83 0.83 -4.2 0 0 830.48 826.01
  C 831.29 826.02 931.47 641.02 940.91 623.67
  A 1.27 1.27 0.0 0 1 942.03 623.00
  L 1002.43 623.00
  A 0.99 0.99 0.0 0 1 1003.42 623.99
  L 1003.75 940.34
  A 1.66 1.66 0.0 0 1 1002.09 942.00
  L 943.08 942.00
  A 1.08 1.08 0.0 0 1 942.00 940.92
  Q 942.00 840.59 942.00 739.72
  C 942.00 738.55 941.24 737.46 939.95 738.12
  A 0.81 0.75 -85.9 0 0 939.63 738.42
  L 848.48 899.44
  Q 848.16 900.00 847.52 900.00
  L 806.50 900.00
  A 0.82 0.81 -14.0 0 1 805.78 899.57
  Q 763.52 819.94 721.30 740.36
  C 721.03 739.85 720.28 738.46 719.84 738.21
  Z"
/>
<path fill="#ffffff" d="
  M 448.94 678.37
  A 1.54 1.54 0.0 0 1 450.48 676.83
  L 511.82 676.83
  A 52.26 48.81 -0.0 0 1 564.08 725.64
  L 564.08 730.76
  A 52.26 48.81 -0.0 0 1 511.82 779.57
  L 450.48 779.57
  A 1.54 1.54 0.0 0 1 448.94 778.03
  L 448.94 678.37
  Z"
/>
</svg>
