<?xml version="1.0" encoding="UTF-8" standalone="no"?>
<!DOCTYPE svg PUBLIC "-//W3C//DTD SVG 1.1//EN" "http://www.w3.org/Graphics/SVG/1.1/DTD/svg11.dtd">
<svg xmlns="http://www.w3.org/2000/svg" version="1.1" viewBox="0.00 0.00 530.00 529.00">
<g stroke-width="2.00" fill="none" stroke-linecap="butt">
<path stroke="#9389ad" vector-effect="non-scaling-stroke" d="
  M 312.18 433.16
  C 194.79 424.12 136.23 285.55 210.14 194.38
  Q 225.59 175.32 244.06 163.31
  C 278.56 140.86 320.20 140.69 360.06 140.40
  Q 416.12 139.98 472.25 139.98
  A 0.38 0.37 65.2 0 0 472.49 139.32
  Q 471.02 138.05 469.37 137.09
  Q 375.02 82.31 280.20 28.34
  C 268.29 21.56 265.19 20.57 253.20 27.46
  Q 156.30 83.12 59.50 138.93
  C 58.12 139.73 57.00 140.99 57.00 142.50
  Q 57.00 262.44 57.00 382.38
  C 57.00 384.86 58.05 385.23 59.94 386.31
  Q 157.58 442.56 255.25 498.75
  C 260.88 501.98 264.95 505.61 271.53 501.81
  Q 329.05 468.60 386.58 435.24
  A 0.50 0.50 0.0 0 0 386.45 434.33
  Q 384.71 433.88 382.75 433.92
  C 359.37 434.48 335.51 434.96 312.18 433.16"
/>
<path stroke="#dd9797" vector-effect="non-scaling-stroke" d="
  M 474.86 375.58
  L 475.16 198.72
  A 1.93 1.93 0.0 0 0 473.24 196.79
  L 325.58 196.53
  A 94.41 90.33 0.1 0 0 231.01 286.70
  L 231.01 286.76
  A 94.41 90.33 0.1 0 0 325.26 377.25
  L 472.92 377.51
  A 1.93 1.93 0.0 0 0 474.86 375.58"
/>
</g>
<path fill="#ffffff" d="
  M 0.00 0.00
  L 530.00 0.00
  L 530.00 529.00
  L 0.00 529.00
  L 0.00 0.00
  Z
  M 312.18 433.16
  C 194.79 424.12 136.23 285.55 210.14 194.38
  Q 225.59 175.32 244.06 163.31
  C 278.56 140.86 320.20 140.69 360.06 140.40
  Q 416.12 139.98 472.25 139.98
  A 0.38 0.37 65.2 0 0 472.49 139.32
  Q 471.02 138.05 469.37 137.09
  Q 375.02 82.31 280.20 28.34
  C 268.29 21.56 265.19 20.57 253.20 27.46
  Q 156.30 83.12 59.50 138.93
  C 58.12 139.73 57.00 140.99 57.00 142.50
  Q 57.00 262.44 57.00 382.38
  C 57.00 384.86 58.05 385.23 59.94 386.31
  Q 157.58 442.56 255.25 498.75
  C 260.88 501.98 264.95 505.61 271.53 501.81
  Q 329.05 468.60 386.58 435.24
  A 0.50 0.50 0.0 0 0 386.45 434.33
  Q 384.71 433.88 382.75 433.92
  C 359.37 434.48 335.51 434.96 312.18 433.16
  Z
  M 474.86 375.58
  L 475.16 198.72
  A 1.93 1.93 0.0 0 0 473.24 196.79
  L 325.58 196.53
  A 94.41 90.33 0.1 0 0 231.01 286.70
  L 231.01 286.76
  A 94.41 90.33 0.1 0 0 325.26 377.25
  L 472.92 377.51
  A 1.93 1.93 0.0 0 0 474.86 375.58
  Z"
/>
<path fill="#26125b" d="
  M 210.14 194.38
  C 136.23 285.55 194.79 424.12 312.18 433.16
  C 335.51 434.96 359.37 434.48 382.75 433.92
  Q 384.71 433.88 386.45 434.33
  A 0.50 0.50 0.0 0 1 386.58 435.24
  Q 329.05 468.60 271.53 501.81
  C 264.95 505.61 260.88 501.98 255.25 498.75
  Q 157.58 442.56 59.94 386.31
  C 58.05 385.23 57.00 384.86 57.00 382.38
  Q 57.00 262.44 57.00 142.50
  C 57.00 140.99 58.12 139.73 59.50 138.93
  Q 156.30 83.12 253.20 27.46
  C 265.19 20.57 268.29 21.56 280.20 28.34
  Q 375.02 82.31 469.37 137.09
  Q 471.02 138.05 472.49 139.32
  A 0.38 0.37 65.2 0 1 472.25 139.98
  Q 416.12 139.98 360.06 140.40
  C 320.20 140.69 278.56 140.86 244.06 163.31
  Q 225.59 175.32 210.14 194.38
  Z"
/>
<path fill="#bb2e2e" d="
  M 474.86 375.58
  A 1.93 1.93 0.0 0 1 472.92 377.51
  L 325.26 377.25
  A 94.41 90.33 0.1 0 1 231.01 286.76
  L 231.01 286.70
  A 94.41 90.33 0.1 0 1 325.58 196.53
  L 473.24 196.79
  A 1.93 1.93 0.0 0 1 475.16 198.72
  L 474.86 375.58
  Z"
/>
</svg>
